<svg width="60" height="60" viewBox="0 0 60 60" fill="none" xmlns="http://www.w3.org/2000/svg">
<path d="M53.7715 8.71875L51.2871 6.23438C51.1934 6.14063 51.0762 6.09961 50.9531 6.09961C50.8301 6.09961 50.7129 6.14648 50.6191 6.23438L46.1602 10.6934C44.2217 9.38 41.9332 8.67977 39.5918 8.68359C36.5918 8.68359 33.5918 9.82617 31.3008 12.1172L25.3301 18.0879C25.2428 18.176 25.1939 18.295 25.1939 18.4189C25.1939 18.5429 25.2428 18.6619 25.3301 18.75L41.25 34.6699C41.3438 34.7637 41.4609 34.8047 41.584 34.8047C41.7012 34.8047 41.8242 34.7578 41.918 34.6699L47.8887 28.6992C51.9258 24.6562 52.4004 18.4043 49.3125 13.8457L53.7715 9.38672C53.9531 9.19922 53.9531 8.90039 53.7715 8.71875ZM45.0645 25.8809L41.584 29.3613L30.6387 18.416L34.1191 14.9355C35.5781 13.4766 37.5234 12.668 39.5918 12.668C41.6602 12.668 43.5996 13.4707 45.0645 14.9355C46.5234 16.3945 47.332 18.3398 47.332 20.4082C47.332 22.4766 46.5234 24.416 45.0645 25.8809ZM33.9199 32.0332C33.8318 31.946 33.7129 31.897 33.5889 31.897C33.4649 31.897 33.3459 31.946 33.2578 32.0332L29.3555 35.9355L24.0645 30.6445L27.9727 26.7363C28.1543 26.5547 28.1543 26.2559 27.9727 26.0742L25.8398 23.9414C25.7517 23.8542 25.6328 23.8052 25.5088 23.8052C25.3848 23.8052 25.2658 23.8542 25.1777 23.9414L21.2695 27.8496L18.75 25.3301C18.7063 25.2863 18.6541 25.2518 18.5967 25.2286C18.5394 25.2055 18.4779 25.1942 18.416 25.1953C18.2988 25.1953 18.1758 25.2422 18.082 25.3301L12.1172 31.3008C8.08008 35.3438 7.60547 41.5957 10.6934 46.1543L6.23438 50.6133C6.14714 50.7014 6.09821 50.8204 6.09821 50.9443C6.09821 51.0683 6.14714 51.1873 6.23438 51.2754L8.71875 53.7598C8.8125 53.8535 8.92969 53.8945 9.05274 53.8945C9.17578 53.8945 9.29297 53.8477 9.38672 53.7598L13.8457 49.3008C15.8203 50.6426 18.1172 51.3106 20.4141 51.3106C23.4141 51.3106 26.4141 50.168 28.7051 47.877L34.6758 41.9063C34.8574 41.7246 34.8574 41.4258 34.6758 41.2441L32.1563 38.7246L36.0645 34.8164C36.2461 34.6348 36.2461 34.3359 36.0645 34.1543L33.9199 32.0332ZM25.8809 45.0645C25.1637 45.7853 24.3108 46.3568 23.3715 46.746C22.4322 47.1352 21.425 47.3344 20.4082 47.332C18.3398 47.332 16.4004 46.5293 14.9355 45.0645C14.2147 44.3473 13.6432 43.4944 13.254 42.5551C12.8648 41.6157 12.6656 40.6086 12.668 39.5918C12.668 37.5234 13.4707 35.584 14.9355 34.1191L18.416 30.6387L29.3613 41.584L25.8809 45.0645Z" fill="#EA580C"/>
</svg>
