<svg width="60" height="60" viewBox="0 0 60 60" fill="none" xmlns="http://www.w3.org/2000/svg">
<g clip-path="url(#clip0_35_2038)">
<mask id="mask0_35_2038" style="mask-type:luminance" maskUnits="userSpaceOnUse" x="0" y="-1" width="60" height="61">
<path d="M60 -0.0500488H0V59.95H60V-0.0500488Z" fill="white"/>
</mask>
<g mask="url(#mask0_35_2038)">
<path d="M25.525 33.2751C25.03 33.2643 24.5571 33.068 24.2 32.7251L20.7 29.2251C20.3489 28.8735 20.1516 28.3969 20.1516 27.9001C20.1516 27.4032 20.3489 26.9266 20.7 26.5751L24.475 22.8001C24.8266 22.4489 25.3031 22.2517 25.8 22.2517C26.2969 22.2517 26.7734 22.4489 27.125 22.8001C27.3019 22.9724 27.4425 23.1785 27.5385 23.406C27.6345 23.6336 27.6839 23.8781 27.6839 24.1251C27.6839 24.372 27.6345 24.6165 27.5385 24.8441C27.4425 25.0717 27.3019 25.2777 27.125 25.4501L24.625 27.9501L26.8 30.1001C27.1467 30.459 27.3405 30.9385 27.3405 31.4376C27.3405 31.9366 27.1467 32.4161 26.8 32.7751C26.4482 33.0885 25.996 33.2658 25.525 33.2751Z" fill="#EA580C"/>
<path d="M34.475 33.275C33.98 33.2642 33.5071 33.0679 33.15 32.725C32.8033 32.3661 32.6095 31.8866 32.6095 31.3875C32.6095 30.8885 32.8033 30.4089 33.15 30.05L35.325 27.9L32.825 25.4C32.6481 25.2276 32.5075 25.0216 32.4115 24.794C32.3155 24.5665 32.2661 24.322 32.2661 24.075C32.2661 23.828 32.3155 23.5835 32.4115 23.356C32.5075 23.1284 32.6481 22.9224 32.825 22.75C33.1766 22.3989 33.6531 22.2017 34.15 22.2017C34.6469 22.2017 35.1234 22.3989 35.475 22.75L39.25 26.525C39.6011 26.8766 39.7983 27.3531 39.7983 27.85C39.7983 28.3469 39.6011 28.8234 39.25 29.175L35.75 32.675C35.4132 33.025 34.9593 33.2386 34.475 33.275Z" fill="#EA580C"/>
<path d="M37.5 56.875H22.5C20.0136 56.875 17.629 55.8873 15.8709 54.1291C14.1127 52.371 13.125 49.9864 13.125 47.5V12.5C13.125 10.0136 14.1127 7.62903 15.8709 5.87087C17.629 4.11272 20.0136 3.125 22.5 3.125H37.5C39.9864 3.125 42.371 4.11272 44.1291 5.87087C45.8873 7.62903 46.875 10.0136 46.875 12.5V47.5C46.875 49.9864 45.8873 52.371 44.1291 54.1291C42.371 55.8873 39.9864 56.875 37.5 56.875ZM22.5 6.875C21.0082 6.875 19.5774 7.46763 18.5225 8.52252C17.4676 9.57742 16.875 11.0082 16.875 12.5V47.5C16.875 48.9918 17.4676 50.4226 18.5225 51.4775C19.5774 52.5324 21.0082 53.125 22.5 53.125H37.5C38.9918 53.125 40.4226 52.5324 41.4775 51.4775C42.5324 50.4226 43.125 48.9918 43.125 47.5V12.5C43.125 11.0082 42.5324 9.57742 41.4775 8.52252C40.4226 7.46763 38.9918 6.875 37.5 6.875H22.5Z" fill="#EA580C"/>
<path d="M30 49.375C29.6294 49.3747 29.2672 49.2645 28.9592 49.0585C28.6511 48.8524 28.4111 48.5597 28.2693 48.2173C28.1275 47.8749 28.0904 47.4982 28.1626 47.1347C28.2348 46.7712 28.4131 46.4372 28.675 46.175C28.893 45.9567 29.1614 45.7956 29.4566 45.706C29.7517 45.6163 30.0644 45.6008 30.367 45.6609C30.6695 45.721 30.9526 45.8549 31.1911 46.0505C31.4295 46.2462 31.616 46.4977 31.734 46.7827C31.852 47.0677 31.8979 47.3774 31.8676 47.6844C31.8372 47.9913 31.7316 48.2861 31.5601 48.5425C31.3886 48.7989 31.1565 49.009 30.8844 49.1542C30.6122 49.2994 30.3085 49.3753 30 49.375Z" fill="#EA580C"/>
</g>
</g>
<defs>
<clipPath id="clip0_35_2038">
<rect width="60" height="60" fill="white"/>
</clipPath>
</defs>
</svg>
