<svg
  width="680"
  height="900"
  viewBox="0 0 680 900"
  fill="none"
  xmlns="http://www.w3.org/2000/svg"
  className="absolute right-0 top-1/4"
>
  <path
    className="mp-code"
    d="M677.713 1H353.627C349.209 1 345.627 4.58172 345.627 9V382C345.627 386.418 342.045 390 337.627 390H9.00001C4.58173 390 1.00002 393.582 1.00002 398V899.5"
    stroke="#A1A1AA"
  />
  <path
    className="mp-security"
    d="M798.106 121H474.021C469.602 121 466.021 124.582 466.021 129V502C466.021 506.418 462.439 510 458.021 510H129.394C124.975 510 121.394 513.582 121.394 518V896.5"
    stroke="#A1A1AA"
  />
  <path
    className="mp-server"
    d="M918.5 241H594.414C589.996 241 586.414 244.582 586.414 249V622C586.414 626.418 582.832 630 578.414 630H249.787C245.369 630 241.787 633.582 241.787 638V894.5"
    stroke="#A1A1AA"
  />
</svg>