<svg width="675" height="900" viewBox="0 0 675 900" fill="none" xmlns="http://www.w3.org/2000/svg">
<path class='path-l-1' d="M0 1H323C327.418 1 331 4.58172 331 9V382C331 386.418 334.582 390 339 390H666.5C670.918 390 674.5 393.582 674.5 398V899.5" stroke="#A1A1AA"/>
<path d="M-120 121H203C207.418 121 211 124.582 211 129V502C211 506.418 214.582 510 219 510H546.5C550.918 510 554.5 513.582 554.5 518V896.5" stroke="#A1A1AA"/>
<path d="M-240 241H83C87.4183 241 91 244.582 91 249V622C91 626.418 94.5817 630 99 630H426.5C430.918 630 434.5 633.582 434.5 638V894.5" stroke="#A1A1AA"/>
</svg>
