<svg width="40" height="40" viewBox="0 0 40 40" fill="none" xmlns="http://www.w3.org/2000/svg">
<g clip-path="url(#clip0_24_1965)">
<path d="M29.4086 26.632V23.4C29.4086 23.0096 29.2535 22.6353 28.9775 22.3592C28.7015 22.0832 28.3271 21.9281 27.9367 21.9281H26.275C25.9818 21.9276 25.6955 21.8398 25.4523 21.6761C25.2091 21.5124 25.0201 21.28 24.9094 21.0086L24.9016 20.9899C24.788 20.7195 24.757 20.4215 24.8127 20.1335C24.8683 19.8456 25.008 19.5805 25.2141 19.3719L26.3859 18.2C26.5227 18.0634 26.6311 17.9012 26.7051 17.7226C26.7791 17.5441 26.8172 17.3527 26.8172 17.1594C26.8172 16.9661 26.7791 16.7747 26.7051 16.5962C26.6311 16.4176 26.5227 16.2554 26.3859 16.1188L24.1062 13.8281C23.9696 13.6914 23.8074 13.5829 23.6288 13.5089C23.4503 13.4349 23.2589 13.3969 23.0656 13.3969C22.8723 13.3969 22.6809 13.4349 22.5024 13.5089C22.3238 13.5829 22.1616 13.6914 22.025 13.8281L20.8531 15C20.6445 15.2061 20.3794 15.3458 20.0915 15.4014C19.8035 15.457 19.5055 15.4261 19.2351 15.3125L19.2164 15.3047C18.9452 15.194 18.7131 15.0053 18.5493 14.7624C18.3856 14.5195 18.2977 14.2335 18.2969 13.9406V12.2852C18.2969 11.8948 18.1418 11.5204 17.8658 11.2444C17.5897 10.9684 17.2154 10.8133 16.825 10.8133H13.5898C13.1995 10.8133 12.8251 10.9684 12.5491 11.2444C12.273 11.5204 12.118 11.8948 12.118 12.2852V13.9469C12.1174 14.24 12.0297 14.5264 11.8659 14.7696C11.7022 15.0127 11.4698 15.2017 11.1984 15.3125L11.1797 15.3203C10.9093 15.4339 10.6113 15.4648 10.3233 15.4092C10.0354 15.3536 9.77036 15.2139 9.56171 15.0078L8.38984 13.8359C8.25322 13.6992 8.09099 13.5908 7.91244 13.5168C7.73388 13.4428 7.54249 13.4047 7.34921 13.4047C7.15593 13.4047 6.96454 13.4428 6.78598 13.5168C6.60743 13.5908 6.4452 13.6992 6.30859 13.8359L4.0203 16.1156C3.88358 16.2523 3.77512 16.4145 3.70112 16.593C3.62711 16.7716 3.58903 16.963 3.58903 17.1563C3.58903 17.3495 3.62711 17.5409 3.70112 17.7195C3.77512 17.898 3.88358 18.0603 4.0203 18.1969L5.19218 19.3688C5.39828 19.5774 5.53795 19.8424 5.59357 20.1304C5.64918 20.4184 5.61825 20.7163 5.50468 20.9867L5.49687 21.0055C5.38618 21.2766 5.19743 21.5088 4.95457 21.6725C4.71171 21.8363 4.42569 21.9241 4.1328 21.925H2.47499C2.28144 21.925 2.08979 21.9632 1.91101 22.0374C1.73223 22.1115 1.56983 22.2202 1.43311 22.3572C1.29639 22.4942 1.18804 22.6569 1.11426 22.8358C1.04047 23.0147 1.00271 23.2065 1.00312 23.4V26.632C1.00312 27.0224 1.15819 27.3968 1.43422 27.6728C1.71025 27.9488 2.08463 28.1039 2.47499 28.1039H4.13671C4.4296 28.1048 4.71562 28.1927 4.95848 28.3564C5.20134 28.5201 5.39009 28.7523 5.50077 29.0234L5.50858 29.0422C5.62216 29.3126 5.65309 29.6106 5.59747 29.8985C5.54186 30.1865 5.40218 30.4515 5.19608 30.6602L4.02421 31.832C3.88748 31.9687 3.77902 32.1309 3.70502 32.3094C3.63102 32.488 3.59293 32.6794 3.59293 32.8727C3.59293 33.066 3.63102 33.2573 3.70502 33.4359C3.77902 33.6145 3.88748 33.7767 4.02421 33.9133L6.30937 36.1984C6.44598 36.3352 6.60821 36.4436 6.78676 36.5176C6.96532 36.5916 7.15671 36.6297 7.34999 36.6297C7.54327 36.6297 7.73466 36.5916 7.91322 36.5176C8.09177 36.4436 8.254 36.3352 8.39062 36.1984L9.56249 35.0266C9.77114 34.8205 10.0362 34.6808 10.3241 34.6252C10.6121 34.5696 10.9101 34.6005 11.1805 34.7141L11.1992 34.7219C11.4704 34.8326 11.7026 35.0213 11.8663 35.2642C12.03 35.507 12.1179 35.7931 12.1187 36.0859V37.7477C12.1189 38.1378 12.274 38.5118 12.5498 38.7877C12.8257 39.0635 13.1997 39.2186 13.5898 39.2188H16.8219C17.2122 39.2188 17.5866 39.0637 17.8626 38.7877C18.1387 38.5116 18.2937 38.1373 18.2937 37.7469V36.0852C18.2946 35.7923 18.3825 35.5063 18.5462 35.2634C18.7099 35.0205 18.9421 34.8318 19.2133 34.7211L19.232 34.7133C19.5024 34.5997 19.8004 34.5688 20.0884 34.6244C20.3763 34.68 20.6413 34.8197 20.85 35.0258L22.0219 36.1977C22.1585 36.3344 22.3207 36.4429 22.4993 36.5169C22.6778 36.5909 22.8692 36.6289 23.0625 36.6289C23.2558 36.6289 23.4472 36.5909 23.6257 36.5169C23.8043 36.4429 23.9665 36.3344 24.1031 36.1977L26.3937 33.9164C26.5305 33.7798 26.6389 33.6176 26.7129 33.439C26.7869 33.2605 26.825 33.0691 26.825 32.8758C26.825 32.6825 26.7869 32.4911 26.7129 32.3126C26.6389 32.134 26.5305 31.9718 26.3937 31.8352L25.2219 30.6633C25.0158 30.4546 24.8761 30.1896 24.8205 29.9017C24.7649 29.6137 24.7958 29.3157 24.9094 29.0453L24.9172 29.0266C25.0279 28.7554 25.2166 28.5232 25.4595 28.3595C25.7023 28.1958 25.9884 28.1079 26.2812 28.107H27.943C28.3328 28.1054 28.706 27.9492 28.9808 27.6726C29.2556 27.3961 29.4094 27.0219 29.4086 26.632Z" stroke="#3B82F6" stroke-width="2" stroke-linecap="round" stroke-linejoin="round"/>
<path d="M15.2062 30.8594C18.4337 30.8594 21.05 28.243 21.05 25.0156C21.05 21.7882 18.4337 19.1719 15.2062 19.1719C11.9788 19.1719 9.36249 21.7882 9.36249 25.0156C9.36249 28.243 11.9788 30.8594 15.2062 30.8594Z" stroke="#3B82F6" stroke-width="2" stroke-linecap="round" stroke-linejoin="round"/>
<path d="M16.4289 10.8133V10.7812C16.4289 10.4704 16.5524 10.1724 16.7721 9.95261C16.9919 9.73284 17.29 9.60938 17.6008 9.60938H18.9211C19.154 9.60914 19.3815 9.53953 19.5746 9.40942C19.7677 9.27932 19.9177 9.09463 20.0055 8.87891C20.0055 8.87422 20.0094 8.86875 20.0117 8.86406C20.102 8.64893 20.1263 8.41181 20.0815 8.18283C20.0367 7.95386 19.9249 7.74337 19.7601 7.57812L18.8226 6.64531C18.6039 6.42568 18.4811 6.12833 18.4811 5.81836C18.4811 5.50838 18.6039 5.21104 18.8226 4.99141L20.6383 3.17578C20.8579 2.95728 21.155 2.83462 21.4648 2.83462C21.7746 2.83462 22.0718 2.95728 22.2914 3.17578L23.225 4.11328C23.3906 4.27722 23.6011 4.38833 23.8299 4.43256C24.0586 4.47678 24.2954 4.45213 24.5101 4.36172L24.525 4.35547C24.7409 4.26788 24.9257 4.11793 25.056 3.92479C25.1862 3.73164 25.2559 3.50405 25.2562 3.27109V1.95312C25.2562 1.64232 25.3797 1.34425 25.5995 1.12448C25.8192 0.904715 26.1173 0.78125 26.4281 0.78125H28.9961C29.3069 0.78125 29.605 0.904715 29.8247 1.12448C30.0445 1.34425 30.168 1.64232 30.168 1.95312V3.27344C30.1682 3.50631 30.2378 3.73383 30.3679 3.92696C30.498 4.1201 30.6827 4.2701 30.8984 4.35781L30.9125 4.36406C31.1274 4.45444 31.3642 4.47907 31.5931 4.43485C31.822 4.39063 32.0327 4.27954 32.1984 4.11563L33.1359 3.17813C33.3555 2.95962 33.6527 2.83696 33.9625 2.83696C34.2723 2.83696 34.5695 2.95962 34.789 3.17813L36.6047 4.99375C36.8234 5.21338 36.9462 5.51073 36.9462 5.8207C36.9462 6.13068 36.8234 6.42803 36.6047 6.64766L35.6656 7.57812C35.5015 7.74375 35.3903 7.95445 35.3462 8.18342C35.3021 8.4124 35.3271 8.64932 35.418 8.86406L35.4234 8.87891C35.5111 9.0945 35.661 9.27911 35.8539 9.40921C36.0469 9.5393 36.2743 9.60898 36.507 9.60938H37.8273C38.1381 9.60938 38.4362 9.73284 38.656 9.95261C38.8757 10.1724 38.9992 10.4704 38.9992 10.7812V13.3484C38.9992 13.6592 38.8757 13.9573 38.656 14.1771C38.4362 14.3968 38.1381 14.5203 37.8273 14.5203H36.507C36.2742 14.5208 36.0468 14.5906 35.8538 14.7208C35.6608 14.851 35.511 15.0358 35.4234 15.2516L35.418 15.2656C35.3265 15.4803 35.3013 15.7173 35.3454 15.9464C35.3895 16.1755 35.501 16.3862 35.6656 16.5516L36.5992 17.4852C36.8177 17.7048 36.9404 18.0019 36.9404 18.3117C36.9404 18.6215 36.8177 18.9187 36.5992 19.1383L34.7836 20.9539C34.564 21.1724 34.2668 21.2951 33.957 21.2951C33.6472 21.2951 33.3501 21.1724 33.1305 20.9539L32.193 20.0203C32.0277 19.8556 31.817 19.7439 31.5879 19.6997C31.3588 19.6554 31.1217 19.6806 30.907 19.7719L30.893 19.7773C30.6783 19.8655 30.4947 20.0154 30.3654 20.208C30.236 20.4007 30.1668 20.6274 30.1664 20.8594V22.1797C30.1655 22.418 30.0919 22.6503 29.9555 22.8457C29.8192 23.0412 29.6265 23.1904 29.4031 23.2734" stroke="#3B82F6" stroke-width="2" stroke-linecap="round" stroke-linejoin="round"/>
<path d="M27.7125 15.8687C29.8133 15.8687 31.5164 14.1657 31.5164 12.0648C31.5164 9.96399 29.8133 8.26093 27.7125 8.26093C25.6116 8.26093 23.9086 9.96399 23.9086 12.0648C23.9086 14.1657 25.6116 15.8687 27.7125 15.8687Z" stroke="#3B82F6" stroke-linecap="round" stroke-linejoin="round"/>
</g>
<defs>
<clipPath id="clip0_24_1965">
<rect width="40" height="40" fill="white"/>
</clipPath>
</defs>
</svg>
