<svg width="40" height="53" viewBox="0 0 40 53" fill="none" xmlns="http://www.w3.org/2000/svg">
<path d="M20.2817 7.42224C13.2678 7.4253 7.57188 13.1212 7.56868 20.1353C7.56868 21.0128 8.28011 21.7244 9.15781 21.7244C10.0355 21.7244 10.7469 21.0128 10.7469 20.1353C10.7476 17.5042 11.8134 15.1296 13.5437 13.3971C15.2761 11.667 17.6508 10.601 20.2817 10.6004C21.1594 10.6004 21.8709 9.88893 21.8709 9.01137C21.8709 8.13375 21.1594 7.42224 20.2817 7.42224ZM15.5168 48.7397H25.0516C25.929 48.7397 26.6407 48.0281 26.6407 47.1506C26.6407 46.2729 25.929 45.5614 25.0516 45.5614H15.5168C14.6391 45.5614 13.9276 46.2729 13.9276 47.1506C13.9276 48.0281 14.6391 48.7397 15.5168 48.7397ZM13.9252 42.3832H26.6383C27.516 42.3832 28.2274 41.6715 28.2274 40.794C28.2274 39.9163 27.516 39.2049 26.6383 39.2049H13.9252C13.0475 39.2049 12.3361 39.9163 12.3361 40.794C12.3361 41.6716 13.0476 42.3832 13.9252 42.3832Z" fill="#FF9966"/>
<path d="M20.2842 1.06567C9.77173 1.06965 1.21854 9.62299 1.21456 20.1353C1.21343 26.0602 3.92372 31.3427 8.14666 34.8352L8.1549 34.8419C9.76343 36.1602 10.7516 37.954 10.7493 39.8723V45.5614C10.7472 46.4255 11.0972 47.2388 11.6754 47.8135C12.2502 48.3917 13.0634 48.7417 13.9276 48.7397H14.7822C15.892 50.6311 17.9335 51.9122 20.2841 51.9179C22.6265 51.9127 24.6707 50.6375 25.765 48.7397H26.6406C27.5046 48.7417 28.3178 48.3917 28.8926 47.8135C29.4709 47.2388 29.8208 46.4256 29.8188 45.5614V39.8723C29.8185 37.9381 30.7817 36.1543 32.3814 34.8419C36.6427 31.3469 39.3551 26.06 39.3536 20.1353C39.3496 9.62299 30.7964 1.06965 20.2842 1.06567ZM30.3677 32.3829C28.1569 34.1826 26.641 36.8479 26.6407 39.8723V45.5615H23.632L23.2628 46.6327C22.8504 47.8392 21.6535 48.7459 20.2841 48.7397C18.9173 48.7466 17.7086 47.84 17.2653 46.6097L16.8859 45.5615H13.9274V39.8723C13.9252 36.8321 12.3705 34.1766 10.1653 32.3804L10.1735 32.387C6.64169 29.4594 4.39368 25.0797 4.39254 20.1353C4.39318 15.7566 6.17351 11.7923 9.05618 8.90744C11.9409 6.02491 15.9053 4.24444 20.284 4.24394C24.6627 4.24444 28.627 6.02491 31.5119 8.90744C34.3944 11.7924 36.1747 15.7566 36.1754 20.1353C36.1739 25.08 33.9281 29.4551 30.3677 32.3829Z" fill="#805D4C"/>
</svg>
