<svg width="40" height="40" viewBox="0 0 40 40" fill="none" xmlns="http://www.w3.org/2000/svg">
<g clip-path="url(#clip0_24_1960)">
<path fill-rule="evenodd" clip-rule="evenodd" d="M17.814 18H19.814V22H17.814C16.71 22 15.814 21.104 15.814 20C15.814 18.896 16.71 18 17.814 18ZM24 18H33.814C34.918 18 35.814 18.896 35.814 20C35.814 21.104 34.918 22 33.814 22H24V18ZM17.814 32H19.814V36H17.814C16.71 36 15.814 35.104 15.814 34C15.814 32.896 16.71 32 17.814 32ZM24 32H33.814C34.918 32 35.814 32.896 35.814 34C35.814 35.104 34.918 36 33.814 36H24V32ZM17.814 4H19.814V8H17.814C16.71 8 15.814 7.104 15.814 6C15.814 4.896 16.71 4 17.814 4ZM24 4H33.814C34.918 4 35.814 4.896 35.814 6C35.814 7.104 34.918 8 33.814 8H24V4ZM11.814 8C11.814 10.21 13.604 12 15.814 12H35.814C38.024 12 40 10.21 40 8V4C40 1.79 38.024 0 35.814 0H15.814C13.604 0 11.814 1.79 11.814 4H4V0H0V31.998C0 34.208 1.60601 36 3.81601 36H4.25201H11.814C11.814 38.21 13.604 40 15.814 40H35.814C38.024 40 40 38.21 40 36V32C40 29.79 38.024 28 35.814 28H15.814C13.604 28 11.814 29.79 11.814 32H5.806C4.706 32 4 31.1078 4 30.0078V22H11.814C11.814 24.21 13.604 26 15.814 26H35.814C38.024 26 40 24.21 40 22V18C40 15.79 38.024 14 35.814 14H15.814C13.604 14 11.814 15.79 11.814 18H4V8H11.814Z" fill="#8B5CF6"/>
</g>
<defs>
<clipPath id="clip0_24_1960">
<rect width="40" height="40" fill="white"/>
</clipPath>
</defs>
</svg>
