<svg width="60" height="60" viewBox="0 0 60 60" fill="none" xmlns="http://www.w3.org/2000/svg">
<path d="M33.36 23.8201C34.16 21.26 34.25 18.66 33.63 16.0201C33.01 13.38 31.74 11.08 29.82 9.12005C28.34 7.60005 26.6 6.47005 24.6 5.73005C22.6 4.99005 20.54 4.70005 18.42 4.86005C17.78 4.90005 17.27 5.14005 16.89 5.58005C16.51 6.02005 16.31 6.53005 16.29 7.11005C16.27 7.69005 16.48 8.22005 16.92 8.70005C17.64 9.38005 18.9 10.43 20.7 11.85C22.5 13.2701 23.74 14.32 24.42 15C25.1 15.68 25.43 16.47 25.41 17.37C25.39 18.2701 25.06 19.04 24.42 19.68L19.68 24.4201C19.04 25.0601 18.26 25.3901 17.34 25.4101C16.42 25.4301 15.66 25.1201 15.06 24.4801L8.7 16.9801C8.22 16.54 7.69 16.32 7.11 16.32C6.53 16.32 6.02 16.51 5.58 16.89C5.14 17.2701 4.9 17.78 4.86 18.42C4.66 20.82 5.05 23.1301 6.03 25.35C7.01 27.5701 8.45 29.4301 10.35 30.9301C12.25 32.4301 14.4 33.4001 16.8 33.8401C19.2 34.2801 21.54 34.1401 23.82 33.4201C24.18 33.3001 24.53 33.2901 24.87 33.3901C25.21 33.4901 25.48 33.6801 25.68 33.9601L40.2 52.6201C41.32 53.8201 42.65 54.6401 44.19 55.0801C45.73 55.5201 47.28 55.5401 48.84 55.1401C50.4 54.7401 51.74 53.9701 52.86 52.8301C53.98 51.6901 54.74 50.3501 55.14 48.8101C55.54 47.2701 55.52 45.7201 55.08 44.1601C54.64 42.6001 53.82 41.2801 52.62 40.2001L33.96 25.6801C33.68 25.4801 33.49 25.2101 33.39 24.8701C33.29 24.5301 33.28 24.18 33.36 23.8201ZM48.48 48.4801C48.08 48.9201 47.59 49.1901 47.01 49.2901C46.43 49.3901 45.86 49.3301 45.3 49.1101C44.74 48.8901 44.3 48.5401 43.98 48.0601C43.66 47.5801 43.5 47.0401 43.5 46.4401C43.5 45.8401 43.66 45.2901 43.98 44.7901C44.3 44.2901 44.74 43.93 45.3 43.7101C45.86 43.4901 46.43 43.4401 47.01 43.5601C47.59 43.68 48.08 43.9401 48.48 44.34C49.04 44.9001 49.32 45.59 49.32 46.4101C49.32 47.2301 49.04 47.9201 48.48 48.4801Z" fill="#EA580C"/>
</svg>
