<svg width="40" height="40" viewBox="0 0 40 40" fill="none" xmlns="http://www.w3.org/2000/svg">
<path d="M24.9503 3.73755C25.1388 2.98347 24.781 2.1992 24.088 1.84727C23.3948 1.49535 22.5507 1.66922 22.053 2.26635L5.38632 22.2663C4.97232 22.7632 4.88307 23.4547 5.15737 24.0403C5.43167 24.6258 6.01999 25 6.66669 25H17.8653L15.0498 36.2625C14.8613 37.0165 15.219 37.8008 15.9121 38.1527C16.6052 38.5047 17.4495 38.3308 17.947 37.7337L34.6137 17.7337C35.0277 17.2368 35.117 16.5454 34.8427 15.9597C34.5683 15.3741 33.98 15 33.3333 15H22.1347L24.9503 3.73755Z" fill="#F59E0B"/>
</svg>
