<svg width="180" height="25" viewBox="0 0 180 25" fill="none" xmlns="http://www.w3.org/2000/svg">
<g clip-path="url(#clip0_98_1954)">
<path d="M38.8477 21.6024H33.356V0.146014H39.4779C41.8686 0.146014 43.5491 0.261015 44.5195 0.496094C45.4847 0.731174 46.305 1.13131 46.9801 1.69644C47.7704 2.35168 48.3756 3.17186 48.7907 4.15219C49.2058 5.13748 49.4109 6.22779 49.4109 7.42818C49.4109 8.70854 49.2058 9.83389 48.7956 10.8042C48.3856 11.7794 47.7803 12.5747 46.9801 13.1999C46.375 13.67 45.6598 14.0051 44.8395 14.2102C44.0193 14.4153 42.7039 14.5203 40.8984 14.5203H39.9031H38.8478V21.6024L38.8477 21.6024ZM38.8477 9.80889H39.963C41.3684 9.80889 42.3487 9.61382 42.9039 9.2287C43.4591 8.84357 43.7392 8.18844 43.7392 7.25805C43.7392 6.35785 43.4641 5.71762 42.9189 5.33758C42.3737 4.95742 41.4034 4.76743 40.0181 4.76743H38.8478V9.80895L38.8477 9.80889ZM52.3768 21.6024V0.146014H58.4986C60.8893 0.146014 62.5598 0.256049 63.5001 0.476063C64.4404 0.696133 65.2557 1.0663 65.9408 1.58143C66.711 2.16659 67.3062 2.91681 67.7213 3.82214C68.1365 4.73233 68.3416 5.73263 68.3416 6.82796C68.3416 8.48847 67.9314 9.83897 67.1161 10.8792C66.2959 11.9195 65.1055 12.6098 63.5401 12.9498L69.3919 21.6024H62.7899L57.8684 13.1999V21.6024H52.3768V21.6024ZM57.8684 10.289H58.9487C60.2091 10.289 61.1294 10.0739 61.7096 9.64384C62.2898 9.21374 62.5798 8.53847 62.5798 7.6232C62.5798 6.54796 62.3097 5.78268 61.7696 5.32759C61.2244 4.87244 60.3191 4.6474 59.0388 4.6474H57.8685V10.289H57.8684ZM71.7676 21.6024V0.146014H77.6793V21.6024H71.7676ZM106.993 21.6024H101.526L100.271 12.3246C100.181 11.6694 100.101 10.9442 100.026 10.1389C99.956 9.33867 99.886 8.46347 99.8311 7.51813C99.6909 8.42838 99.426 9.55874 99.0258 10.9191C98.9358 11.1992 98.8708 11.4093 98.8307 11.5493L95.9199 21.6023H92.0187L89.1078 11.5493C89.0678 11.4093 89.0078 11.1992 88.9278 10.9191C88.5177 9.55874 88.2526 8.4334 88.1226 7.53309C88.0675 8.34334 87.9975 9.14857 87.9175 9.94387C87.8424 10.7391 87.7474 11.5344 87.6424 12.3246L86.382 21.6023H80.9453L84.2563 0.145958H90.0431L93.279 11.2093C93.299 11.2892 93.339 11.4143 93.3991 11.5944C93.6991 12.5796 93.8892 13.4249 93.9692 14.1302C94.0092 13.745 94.0793 13.3249 94.1892 12.8597C94.2943 12.3946 94.4443 11.8344 94.6294 11.1792L97.8954 0.145958H103.697L106.993 21.6023V21.6024ZM110.139 21.6024V0.146014H123.283V4.85743H115.841V8.57853H122.858V13.1699H115.841V16.801H123.283V21.6024H110.139V21.6024ZM130.03 19.2016H131.656C134.291 19.2016 136.117 19.0866 137.132 18.8565C138.148 18.6265 138.993 18.2363 139.668 17.6762C140.548 16.9459 141.218 16.0007 141.674 14.8453C142.134 13.685 142.364 12.3596 142.364 10.8642C142.364 9.36367 142.139 8.04331 141.684 6.9029C141.228 5.76762 140.558 4.82735 139.668 4.08205C138.993 3.51687 138.138 3.11679 137.097 2.87674C136.057 2.63664 134.246 2.51668 131.656 2.51668H130.03V19.2016ZM127.449 21.6024V0.146014H131.571C134.616 0.146014 136.762 0.301022 138.007 0.606129C139.253 0.916258 140.348 1.43139 141.283 2.15158C142.514 3.10189 143.449 4.31222 144.084 5.78765C144.719 7.26308 145.035 8.96365 145.035 10.8892C145.035 12.8048 144.719 14.4952 144.089 15.9657C143.459 17.4361 142.524 18.6465 141.283 19.5968C140.343 20.317 139.278 20.8321 138.082 21.1422C136.882 21.4473 135.022 21.6024 132.491 21.6024H131.571H127.449ZM149.211 21.6024V0.146014H160.524V2.48671H151.762V8.63857H160.524V11.0093H151.762V19.2317H160.524V21.6024H149.211V21.6024ZM170.972 22.4426L161.905 0.145958H164.67L170.972 16.5609L177.244 0.145958H180L170.972 22.4426H170.972Z" fill="#3D465A"/>
<path fill-rule="evenodd" clip-rule="evenodd" d="M3.54879 16.4924L10.4647 16.4975C11.1911 16.4977 11.0975 16.4493 11.6265 16.1172C11.9824 15.8938 12.2181 15.7493 12.5878 15.5204C13.3037 15.0774 13.8316 14.7456 14.5538 14.3044C15.8374 13.5202 17.2063 12.6417 18.4409 11.9021C19.084 11.5168 19.7494 11.092 20.3713 10.7153C20.8422 10.4302 20.7265 10.2422 20.8556 9.64373C20.9537 9.18952 21.0604 8.75586 21.138 8.31075C21.3451 7.12313 22.163 3.79363 22.2041 3.03276C21.9161 3.12287 18.0787 5.93819 17.4759 6.37487L5.83375 14.7698C5.61256 14.9281 3.62608 16.2793 3.54879 16.4923V16.4924ZM1.45361 10.1024C1.64439 10.0482 5.24457 7.03464 5.33636 6.87031C5.29914 6.81205 0.327315 3.13442 0 3.0399C0.0188599 3.55632 0.24105 4.31027 0.336689 4.80994L1.45361 10.1024ZM12.2145 16.4881L19.4039 16.4974C19.5553 16.0923 20.4624 11.7525 20.4577 11.376C20.1698 11.4802 12.2448 16.4352 12.2145 16.488V16.4881ZM2.53912 19.6177L19.6378 19.6234C19.6965 19.2233 19.7294 17.8013 19.6114 17.5286C19.4664 17.4714 3.84124 17.4046 2.55346 17.496L2.53912 19.6176V19.6177ZM2.7848 16.19C3.11312 16.0821 11.8216 9.74171 12.532 9.22412C13.0687 8.83308 13.5528 8.48758 14.1358 8.05876C14.4078 7.85873 14.6214 7.71013 14.9434 7.48058C15.1705 7.31871 15.641 7.06711 15.7471 6.81256C15.5987 6.56252 14.9775 6.12607 14.6544 5.85505L11.3513 3.0948C11.0108 2.79941 10.942 3.01948 10.1898 3.65145L1.93956 10.5289C1.64483 10.7746 1.54986 10.7331 1.66749 11.2211L2.54163 15.3641C2.59363 15.6323 2.63364 16.0114 2.7848 16.19Z" fill="#E27B37"/>
<path d="M80.7339 24.413H171.923" stroke="#E27B37" stroke-width="2" stroke-miterlimit="22.9256"/>
</g>
<defs>
<clipPath id="clip0_98_1954">
<rect width="180" height="24.708" fill="white" transform="translate(0 0.146011)"/>
</clipPath>
</defs>
</svg>
