<svg width="1004" height="130" viewBox="0 0 1004 130" fill="none" xmlns="http://www.w3.org/2000/svg">
<path fill-rule="evenodd" clip-rule="evenodd" d="M26.8265 104.539L79.1062 104.578C84.5977 104.579 83.8895 104.211 87.889 101.685C90.5788 99.9856 92.3605 98.8863 95.1553 97.1457C100.567 93.7758 104.558 91.2517 110.017 87.8957C119.72 81.9308 130.068 75.2486 139.401 69.6232C144.263 66.6925 149.292 63.4609 153.994 60.596C157.553 58.4271 156.678 56.9968 157.654 52.4448C158.396 48.9899 159.203 45.6913 159.79 42.3056C161.355 33.272 167.538 7.9463 167.848 2.15878C165.672 2.84423 136.663 24.2588 132.106 27.5804L44.0993 91.4363C42.4273 92.64 27.4107 102.918 26.8265 104.538V104.539ZM10.9883 55.934C12.4305 55.5215 39.6455 32.5989 40.3394 31.3489C40.058 30.9058 2.47428 2.93209 0 2.21311C0.142569 6.1412 1.82218 11.8761 2.54515 15.6769L10.9883 55.934ZM92.3339 104.506L146.681 104.577C147.825 101.496 154.682 68.4848 154.647 65.6216C152.47 66.4136 92.563 104.104 92.3339 104.506V104.506ZM19.1941 128.311L148.449 128.354C148.892 125.311 149.141 114.495 148.249 112.421C147.153 111.986 29.0372 111.478 19.3025 112.173L19.1941 128.311V128.311ZM21.0512 102.238C23.5331 101.418 89.3632 53.1901 94.734 49.2531C98.7908 46.2787 102.45 43.6506 106.857 40.3889C108.913 38.8673 110.528 37.737 112.963 35.9909C114.679 34.7597 118.236 32.8459 119.037 30.9097C117.916 29.0078 113.22 25.6879 110.778 23.6264L85.8087 2.63074C83.2344 0.383812 82.7143 2.05776 77.0285 6.86486L14.6618 59.1775C12.4338 61.0467 11.7159 60.7314 12.6051 64.443L19.213 95.9569C19.6062 97.9963 19.9086 100.88 21.0512 102.238Z" fill="white"/>
<path d="M298.837 54.562C298.837 61.3098 297.253 67.4777 294.086 73.0657C291.024 78.5483 286.326 82.9765 279.992 86.3504C273.764 89.6188 266.11 91.2531 257.031 91.2531H241.67V128.893H210.633V17.3966H257.031C266.004 17.3966 273.605 18.9781 279.834 22.1411C286.168 25.3041 290.919 29.6796 294.086 35.2676C297.253 40.8556 298.837 47.2871 298.837 54.562ZM254.022 66.5815C262.784 66.5815 267.166 62.575 267.166 54.562C267.166 46.4436 262.784 42.3844 254.022 42.3844H241.67V66.5815H254.022Z" fill="white"/>
<path d="M342.343 55.8273C345.827 50.7664 350.05 46.7599 355.012 43.8078C359.973 40.8556 365.305 39.3796 371.005 39.3796V72.4331H362.296C355.54 72.4331 350.525 73.751 347.252 76.3869C343.98 79.0227 342.343 83.6091 342.343 90.146V128.893H311.306V40.1703H342.343V55.8273Z" fill="white"/>
<path d="M397.81 31.9465C392.32 31.9465 387.886 30.4704 384.508 27.5183C381.235 24.4607 379.599 20.665 379.599 16.1314C379.599 11.4923 381.235 7.64396 384.508 4.58638C387.886 1.52879 392.32 0 397.81 0C403.194 0 407.522 1.52879 410.795 4.58638C414.173 7.64396 415.862 11.4923 415.862 16.1314C415.862 20.665 414.173 24.4607 410.795 27.5183C407.522 30.4704 403.194 31.9465 397.81 31.9465ZM413.17 40.1703V128.893H382.132V40.1703H413.17Z" fill="white"/>
<path d="M546.919 39.3796C558.109 39.3796 566.872 42.7534 573.206 49.5012C579.646 56.249 582.866 65.4745 582.866 77.1776V128.893H551.828V81.2895C551.828 76.545 550.508 72.8548 547.869 70.219C545.23 67.5831 541.641 66.2652 537.101 66.2652C532.562 66.2652 528.972 67.5831 526.333 70.219C523.694 72.8548 522.374 76.545 522.374 81.2895V128.893H491.337V81.2895C491.337 76.545 490.017 72.8548 487.378 70.219C484.844 67.5831 481.307 66.2652 476.768 66.2652C472.123 66.2652 468.481 67.5831 465.841 70.219C463.202 72.8548 461.883 76.545 461.883 81.2895V128.893H430.845V40.1703H461.883V51.8735C464.627 48.0779 468.164 45.073 472.492 42.8589C476.926 40.5393 481.994 39.3796 487.694 39.3796C494.24 39.3796 500.046 40.8029 505.113 43.6496C510.286 46.4964 514.351 50.5028 517.307 55.6691C520.474 50.8191 524.644 46.9181 529.817 43.9659C534.99 40.9084 540.69 39.3796 546.919 39.3796Z" fill="white"/>
<path d="M684.748 83.5037C684.748 85.9286 684.59 88.3536 684.273 90.7786H625.524C625.84 95.6286 627.16 99.266 629.483 101.691C631.911 104.011 634.972 105.17 638.667 105.17C643.84 105.17 647.535 102.851 649.752 98.2117H682.848C681.476 104.327 678.784 109.809 674.772 114.659C670.866 119.404 665.904 123.147 659.887 125.888C653.869 128.629 647.218 130 639.934 130C631.172 130 623.36 128.155 616.497 124.465C609.741 120.775 604.41 115.503 600.504 108.65C596.703 101.796 594.803 93.7307 594.803 84.4526C594.803 75.1744 596.703 67.1614 600.504 60.4136C604.304 53.5604 609.583 48.2887 616.339 44.5985C623.201 40.9084 631.066 39.0633 639.934 39.0633C648.696 39.0633 656.456 40.8556 663.212 44.4404C669.969 48.0251 675.247 53.1914 679.048 59.9392C682.848 66.5815 684.748 74.4363 684.748 83.5037ZM653.077 75.7543C653.077 71.9586 651.811 69.0065 649.277 66.8978C646.743 64.6837 643.576 63.5766 639.776 63.5766C635.975 63.5766 632.861 64.631 630.433 66.7397C628.005 68.7429 626.421 71.7478 625.682 75.7543H653.077Z" fill="white"/>
</svg>
