<svg width="664" height="192" viewBox="0 0 664 192" fill="none" xmlns="http://www.w3.org/2000/svg">
<path fill-rule="evenodd" clip-rule="evenodd" d="M40.3023 119.715L72.0723 119.739C75.4093 119.74 74.979 119.519 77.4095 118.003C79.044 116.984 80.1268 116.325 81.8252 115.281C85.1141 113.26 87.5392 111.746 90.8565 109.733C96.753 106.155 103.041 102.147 108.713 98.7729C111.667 97.0151 114.724 95.0768 117.581 93.3584C119.744 92.0576 119.212 91.1996 119.805 88.4694C120.256 86.3971 120.746 84.4186 121.103 82.3879C122.054 76.9695 125.811 61.7791 126 58.3078C124.677 58.7189 107.049 71.5634 104.28 73.5557L50.7988 111.856C49.7827 112.578 40.6573 118.743 40.3023 119.715V119.715ZM30.6775 90.5622C31.5539 90.3148 48.0923 76.5658 48.5139 75.816C48.3429 75.5503 25.5036 58.7716 24 58.3404C24.0866 60.6964 25.1073 64.1362 25.5467 66.4159L30.6775 90.5622ZM80.1106 119.696L113.137 119.738C113.832 117.89 117.999 98.0902 117.978 96.3728C116.655 96.8479 80.2498 119.454 80.1106 119.696V119.696ZM35.6641 133.974L114.211 134C114.481 132.175 114.632 125.687 114.09 124.443C113.424 124.182 41.6457 123.877 35.73 124.294L35.6641 133.974V133.974ZM36.7927 118.336C38.3009 117.843 78.3053 88.9164 81.5691 86.555C84.0344 84.7709 86.2583 83.1946 88.9361 81.2382C90.1857 80.3256 91.1669 79.6476 92.6465 78.6003C93.6894 77.8618 95.851 76.7139 96.3381 75.5526C95.6565 74.4118 92.8028 72.4206 91.3187 71.1841L76.1453 58.5909C74.5809 57.2432 74.2649 58.2472 70.8096 61.1305L32.9099 92.5076C31.556 93.6288 31.1197 93.4396 31.66 95.6659L35.6756 114.568C35.9145 115.791 36.0983 117.521 36.7927 118.336Z" fill="#EA580C"/>
<path d="M210.848 84.88C210.848 88.976 209.888 92.72 207.968 96.112C206.112 99.44 203.264 102.128 199.424 104.176C195.648 106.16 191.008 107.152 185.504 107.152H176.192V130H157.376V62.32H185.504C190.944 62.32 195.552 63.28 199.328 65.2C203.168 67.12 206.048 69.776 207.968 73.168C209.888 76.56 210.848 80.464 210.848 84.88ZM183.68 92.176C188.992 92.176 191.648 89.744 191.648 84.88C191.648 79.952 188.992 77.488 183.68 77.488H176.192V92.176H183.68ZM237.223 85.648C239.335 82.576 241.895 80.144 244.903 78.352C247.911 76.56 251.143 75.664 254.599 75.664V95.728H249.319C245.223 95.728 242.183 96.528 240.199 98.128C238.215 99.728 237.223 102.512 237.223 106.48V130H218.407V76.144H237.223V85.648ZM270.849 71.152C267.521 71.152 264.833 70.256 262.785 68.464C260.801 66.608 259.809 64.304 259.809 61.552C259.809 58.736 260.801 56.4 262.785 54.544C264.833 52.688 267.521 51.76 270.849 51.76C274.113 51.76 276.737 52.688 278.721 54.544C280.769 56.4 281.793 58.736 281.793 61.552C281.793 64.304 280.769 66.608 278.721 68.464C276.737 70.256 274.113 71.152 270.849 71.152ZM280.161 76.144V130H261.345V76.144H280.161ZM361.244 75.664C368.028 75.664 373.34 77.712 377.18 81.808C381.084 85.904 383.036 91.504 383.036 98.608V130H364.22V101.104C364.22 98.224 363.42 95.984 361.82 94.384C360.22 92.784 358.044 91.984 355.292 91.984C352.54 91.984 350.364 92.784 348.764 94.384C347.164 95.984 346.364 98.224 346.364 101.104V130H327.548V101.104C327.548 98.224 326.748 95.984 325.148 94.384C323.612 92.784 321.468 91.984 318.716 91.984C315.9 91.984 313.692 92.784 312.092 94.384C310.492 95.984 309.692 98.224 309.692 101.104V130H290.876V76.144H309.692V83.248C311.356 80.944 313.5 79.12 316.124 77.776C318.812 76.368 321.884 75.664 325.34 75.664C329.308 75.664 332.828 76.528 335.9 78.256C339.036 79.984 341.5 82.416 343.292 85.552C345.212 82.608 347.74 80.24 350.876 78.448C354.012 76.592 357.468 75.664 361.244 75.664ZM444.801 102.448C444.801 103.92 444.705 105.392 444.513 106.864H408.897C409.089 109.808 409.889 112.016 411.297 113.488C412.769 114.896 414.625 115.6 416.865 115.6C420.001 115.6 422.241 114.192 423.585 111.376H443.649C442.817 115.088 441.185 118.416 438.753 121.36C436.385 124.24 433.377 126.512 429.729 128.176C426.081 129.84 422.049 130.672 417.633 130.672C412.321 130.672 407.585 129.552 403.425 127.312C399.329 125.072 396.097 121.872 393.729 117.712C391.425 113.552 390.273 108.656 390.273 103.024C390.273 97.392 391.425 92.528 393.729 88.432C396.033 84.272 399.233 81.072 403.329 78.832C407.489 76.592 412.257 75.472 417.633 75.472C422.945 75.472 427.649 76.56 431.745 78.736C435.841 80.912 439.041 84.048 441.345 88.144C443.649 92.176 444.801 96.944 444.801 102.448ZM425.601 97.744C425.601 95.44 424.833 93.648 423.297 92.368C421.761 91.024 419.841 90.352 417.537 90.352C415.233 90.352 413.345 90.992 411.873 92.272C410.401 93.488 409.441 95.312 408.993 97.744H425.601Z" fill="#1E293B"/>
<path d="M479.285 62.32C486.389 62.32 492.597 63.76 497.909 66.64C503.285 69.456 507.413 73.424 510.293 78.544C513.173 83.664 514.613 89.52 514.613 96.112C514.613 102.64 513.141 108.464 510.197 113.584C507.317 118.704 503.189 122.736 497.813 125.68C492.501 128.56 486.325 130 479.285 130H452.501V62.32H479.285ZM477.845 113.392C483.349 113.392 487.669 111.888 490.805 108.88C493.941 105.872 495.509 101.616 495.509 96.112C495.509 90.544 493.941 86.256 490.805 83.248C487.669 80.176 483.349 78.64 477.845 78.64H471.317V113.392H477.845ZM574.551 102.448C574.551 103.92 574.455 105.392 574.263 106.864H538.647C538.839 109.808 539.639 112.016 541.047 113.488C542.519 114.896 544.375 115.6 546.615 115.6C549.751 115.6 551.991 114.192 553.335 111.376H573.399C572.567 115.088 570.935 118.416 568.503 121.36C566.135 124.24 563.127 126.512 559.479 128.176C555.831 129.84 551.799 130.672 547.383 130.672C542.071 130.672 537.335 129.552 533.175 127.312C529.079 125.072 525.847 121.872 523.479 117.712C521.175 113.552 520.023 108.656 520.023 103.024C520.023 97.392 521.175 92.528 523.479 88.432C525.783 84.272 528.983 81.072 533.079 78.832C537.239 76.592 542.007 75.472 547.383 75.472C552.695 75.472 557.399 76.56 561.495 78.736C565.591 80.912 568.791 84.048 571.095 88.144C573.399 92.176 574.551 96.944 574.551 102.448ZM555.351 97.744C555.351 95.44 554.583 93.648 553.047 92.368C551.511 91.024 549.591 90.352 547.287 90.352C544.983 90.352 543.095 90.992 541.623 92.272C540.151 93.488 539.191 95.312 538.743 97.744H555.351ZM608.075 112.24L618.155 76.144H638.219L619.691 130H596.267L577.739 76.144H597.803L608.075 112.24Z" fill="#EA580C"/>
</svg>
